<?xml version="1.0" encoding="utf-8"?>
<!-- Generator: Adobe Illustrator 18.1.1, SVG Export Plug-In . SVG Version: 6.00 Build 0)  -->
<svg version="1.1" id="Pencil" xmlns="http://www.w3.org/2000/svg" xmlns:xlink="http://www.w3.org/1999/xlink" x="0px" y="0px"
	 viewBox="-256 456 566.5 752.5" enable-background="new -256 456 566.5 752.5" xml:space="preserve">
<path fill="#646464" d="M256.7,1186.2c27.3-18.4,45.3-47.2,51.5-79.2c6.2-32-0.7-64.7-19.1-92L-6.7,589c-0.6-2-3.7-5.5-6.2-6.9
	l-211.5-122.8c-7.7-4.3-16.3-4.1-21.8-0.4c-5.5,3.7-8.4,8.8-9.3,13.4c0.6,2-0.9,4.6-0.3,6.6l25.4,215.7c1.1,4,1.7,6,2.8,10
	l313.7,451.3c18.4,27.3,47.2,45.3,79.2,51.5C196.7,1211.6,229.4,1204.6,256.7,1186.2z M-191.4,679.3l-9.7-81.6
	c14.6-1.9,26.1-7.3,37-14.6c8.9-6.8,17.3-15.6,25.6-24.4l90.4,52.7l-8.3,47.7l-41.2-8c-11.2-1.2-22.1,6.1-23.3,17.3l-7.1,36.6
	L-191.4,679.3z M52,1033.4L-153.5,738l31.7,12.8c5.1,2.9,11.7,3.2,17.2-0.5c5.5-3.7,8.4-8.8,11.3-13.9l8-41.2l41.2,8
	c11.2,1.2,22.1-6.1,23.3-17.3l6.2-32L184,940.4l0,0c11.6,18.4,17.2,38.5,12.7,61.3c-3,20.3-15.2,38.8-33,52.4
	c-18.4,11.6-38.5,17.2-61.3,12.7C84.1,1063.4,63.6,1051.8,52,1033.4z M120.3,1131.2l-14.7-21.9c28.9,2.8,59.6-3.6,82.9-20.9
	c25.3-17.9,42.4-42.1,49.2-72.1l14.7,21.9l0,0c11.6,18.4,17.2,38.5,12.7,61.3c-3,20.3-15.2,38.8-33,52.4
	c-18.4,11.6-38.5,17.2-61.3,12.7C150.4,1161.7,131.9,1149.6,120.3,1131.2z"/>
</svg>
