<?xml version="1.0" encoding="utf-8"?>
<!-- Generator: Adobe Illustrator 18.1.1, SVG Export Plug-In . SVG Version: 6.00 Build 0)  -->
<svg version="1.1" id="Pencil" xmlns="http://www.w3.org/2000/svg" xmlns:xlink="http://www.w3.org/1999/xlink" x="0px" y="0px"
	 viewBox="0 0 1190.6 841.9" enable-background="new 0 0 1190.6 841.9" xml:space="preserve">
<path fill="#C4161C" d="M596,1272.9c30.5-20.6,50.7-52.8,57.6-88.6s-0.8-72.4-21.4-102.9L301.3,604.8c-0.7-2.2-4.1-6.2-6.9-7.7
	L57.7,459.7c-8.6-4.8-18.2-4.6-24.4-0.4c-6.2,4.1-9.4,9.8-10.4,15c0.7,2.2-1,5.1-0.3,7.4L51,722.9c1.2,4.5,1.9,6.7,3.1,11.2
	l351,504.9c20.6,30.5,52.8,50.7,88.6,57.6C528.9,1301.4,565.4,1293.5,596,1272.9z M94.7,705.8l-10.9-91.3
	c16.3-2.1,29.2-8.2,41.4-16.3c10-7.6,19.4-17.5,28.6-27.3l101.1,59l-9.3,53.4l-46.1-9c-12.5-1.3-24.7,6.8-26.1,19.4l-7.9,40.9
	L94.7,705.8z M367,1102L137.1,771.5l35.5,14.3c5.7,3.2,13.1,3.6,19.2-0.6c6.2-4.1,9.4-9.8,12.6-15.6l9-46.1l46.1,9
	c12.5,1.3,24.7-6.8,26.1-19.4l6.9-35.8l222.2,320.5l0,0c13,20.6,19.2,43.1,14.2,68.6c-3.4,22.7-17,43.4-36.9,58.6
	c-20.6,13-43.1,19.2-68.6,14.2C402.9,1135.6,379.9,1122.6,367,1102z M443.4,1211.4l-16.4-24.5c32.3,3.1,66.7-4,92.7-23.4
	c28.3-20,47.4-47.1,55-80.7l16.4,24.5l0,0c13,20.6,19.2,43.1,14.2,68.6c-3.4,22.7-17,43.4-36.9,58.6c-20.6,13-43.1,19.2-68.6,14.2
	C477.1,1245.5,456.4,1232,443.4,1211.4z"/>
</svg>
